<svg width="176" height="60" viewBox="0 0 176 60" fill="none" xmlns="http://www.w3.org/2000/svg">
<path d="M5.47846 13.197C8.17022 13.197 9.97631 11.443 10.2194 8.6297L8.43071 8.36921C8.18759 10.4532 7.18035 11.5299 5.47846 11.5299C3.35978 11.5299 2.09204 9.77587 2.09204 6.85835C2.09204 3.95819 3.37714 2.18683 5.47846 2.18683C7.09352 2.18683 8.10076 3.19407 8.43071 5.08699L10.1847 4.79177C9.85474 2.2042 8.01392 0.519677 5.47846 0.519677C2.35254 0.519677 0.303324 3.03778 0.303324 6.85835C0.303324 10.7136 2.33517 13.197 5.47846 13.197ZM18.3742 13.197C21.5002 13.197 23.5667 10.6789 23.5667 6.85835C23.5667 3.03778 21.5002 0.519677 18.3742 0.519677C15.2483 0.519677 13.1991 3.03778 13.1991 6.85835C13.1991 10.6789 15.2483 13.197 18.3742 13.197ZM18.3742 11.5299C16.2729 11.5299 14.9878 9.75851 14.9878 6.85835C14.9878 3.95819 16.2729 2.18683 18.3742 2.18683C20.4929 2.18683 21.778 3.95819 21.778 6.85835C21.778 9.75851 20.4929 11.5299 18.3742 11.5299ZM27.417 12.9365H29.1884V3.81926H29.2231L33.0263 12.9365H33.773L37.5936 3.81926H37.6283V12.9365H39.3997V0.78017H37.1942L33.4257 9.9669H33.391L29.6225 0.78017H27.417V12.9365ZM43.9251 12.9365H45.7138V8.40394H48.7008C51.2884 8.40394 52.8166 6.97991 52.8166 4.60074C52.8166 2.23893 51.2884 0.78017 48.7182 0.78017H43.9251V12.9365ZM45.7138 6.73678V2.44733H48.6487C50.2464 2.44733 51.0279 3.14198 51.0279 4.60074C51.0279 6.02477 50.229 6.73678 48.6313 6.73678H45.7138ZM62.5358 12.9365H64.3419L59.983 0.78017H58.3159L53.9396 12.9365H55.7457L56.5445 10.6615H61.737L62.5358 12.9365ZM57.0829 9.09859L59.1321 3.24617H59.1668L61.1986 9.09859H57.0829ZM68.6475 12.9365H70.4363V2.44733H74.1179V0.78017H64.9312V2.44733H68.6475V12.9365ZM77.813 12.9365H79.6017V0.78017H77.813V12.9365ZM84.1286 12.9365H88.6264C91.5092 12.9365 93.0027 11.6862 93.0027 9.28962C93.0027 7.91769 92.2907 6.85835 91.1966 6.42419V6.38946C92.0302 5.97267 92.5512 5.08699 92.5512 3.95819C92.5512 2.06527 91.1098 0.78017 88.9911 0.78017H84.1286V12.9365ZM85.9173 5.83374V2.42996H88.6959C90.0504 2.42996 90.7625 3.00305 90.7625 4.11448C90.7625 5.26065 90.0852 5.83374 88.6959 5.83374H85.9173ZM85.9173 11.2867V7.3446H88.6611C90.4499 7.3446 91.214 7.93505 91.214 9.27225C91.214 10.6789 90.4325 11.2867 88.6264 11.2867H85.9173ZM96.8548 12.9365H103.992V11.2694H98.6435V0.78017H96.8548V12.9365ZM107.698 12.9365H115.149V11.2694H109.487V7.48353H114.662V5.88584H109.487V2.44733H115.149V0.78017H107.698V12.9365ZM126.413 12.9365H128.462L131.258 3.61086H131.293L134.072 12.9365H136.138L138.465 0.78017H136.642L134.905 10.0885H134.87L132.109 0.78017H130.425L127.681 10.0885H127.646L125.909 0.78017H124.069L126.413 12.9365ZM141.909 12.9365H143.697V0.78017H141.909V12.9365ZM151.09 12.9365H152.878V2.44733H156.56V0.78017H147.373V2.44733H151.09V12.9365ZM160.255 12.9365H162.044V7.48353H167.028V12.9365H168.817V0.78017H167.028V5.9032H162.044V0.78017H160.255V12.9365Z" fill="black"/>
<path fill-rule="evenodd" clip-rule="evenodd" d="M93.6921 57.7137L93.6911 57.7123H102.972L108.673 46.2495L114.373 57.7123H125.651L108.672 24.9302L92.5543 56.0524L86.3661 47.0167C90.1869 45.1741 92.5685 41.9828 92.5685 37.3987V37.3085C92.5685 34.073 91.5802 31.7356 89.6922 29.8477C87.4897 27.6455 83.9392 26.2523 78.3664 26.2523H62.995V57.7137H73.5122V48.7246H75.7594L81.6921 57.7137H93.6921ZM158.547 24.9302L141.57 57.7123H152.848L158.549 46.2495L164.25 57.7123H175.527L158.547 24.9302ZM133.62 59.0022L150.597 26.22H139.32L133.619 37.6829L127.918 26.22H116.641L133.62 59.0022ZM78.0518 41.2191C80.5682 41.2191 82.0966 40.0956 82.0966 38.163V38.0728C82.0966 36.0504 80.5232 35.0617 78.0967 35.0617H73.5122V41.2191H78.0518ZM40.5035 35.1512H31.2453V26.2523H60.2792V35.1512H51.0211V57.7137H40.5035V35.1512ZM5.61851 46.2977L0 52.9945C4.00023 56.5007 9.75321 58.2981 16.135 58.2981C24.5849 58.2981 30.0233 54.2529 30.0233 47.6456V47.5561C30.0233 41.2189 24.6298 38.8815 16.5848 37.3988C13.2587 36.7689 12.4048 36.2303 12.4048 35.376V35.2861C12.4048 34.5221 13.1242 33.9828 14.6969 33.9828C17.6181 33.9828 21.1693 34.9266 24.1351 37.0838L29.2593 29.9829C25.6186 27.1063 21.1243 25.6678 15.0568 25.6678C6.38181 25.6678 1.70781 30.2975 1.70781 36.2749V36.3651C1.70781 43.0166 7.91057 45.0397 14.9665 46.4771C18.3376 47.1516 19.3259 47.6456 19.3259 48.5448V48.6351C19.3259 49.4886 18.5173 49.9826 16.6294 49.9826C12.9441 49.9826 9.03413 48.9047 5.61851 46.2977Z" fill="black"/>
</svg>
