<svg width="176" height="60" viewBox="0 0 176 60" fill="none" xmlns="http://www.w3.org/2000/svg">
<path d="M5.47821 13.197C8.16998 13.197 9.97606 11.443 10.2192 8.6297L8.43047 8.36921C8.18734 10.4532 7.1801 11.5299 5.47821 11.5299C3.35953 11.5299 2.0918 9.77587 2.0918 6.85835C2.0918 3.95819 3.3769 2.18683 5.47821 2.18683C7.09327 2.18683 8.10051 3.19407 8.43047 5.08699L10.1845 4.79177C9.8545 2.2042 8.01368 0.519677 5.47821 0.519677C2.35229 0.519677 0.303079 3.03778 0.303079 6.85835C0.303079 10.7136 2.33493 13.197 5.47821 13.197ZM18.374 13.197C21.4999 13.197 23.5665 10.6789 23.5665 6.85835C23.5665 3.03778 21.4999 0.519677 18.374 0.519677C15.2481 0.519677 13.1989 3.03778 13.1989 6.85835C13.1989 10.6789 15.2481 13.197 18.374 13.197ZM18.374 11.5299C16.2727 11.5299 14.9876 9.75851 14.9876 6.85835C14.9876 3.95819 16.2727 2.18683 18.374 2.18683C20.4927 2.18683 21.7778 3.95819 21.7778 6.85835C21.7778 9.75851 20.4927 11.5299 18.374 11.5299ZM27.4168 12.9365H29.1881V3.81926H29.2229L33.0261 12.9365H33.7728L37.5934 3.81926H37.6281V12.9365H39.3995V0.78017H37.1939L33.4255 9.9669H33.3907L29.6223 0.78017H27.4168V12.9365ZM43.9248 12.9365H45.7136V8.40394H48.7006C51.2881 8.40394 52.8164 6.97991 52.8164 4.60074C52.8164 2.23893 51.2881 0.78017 48.7179 0.78017H43.9248V12.9365ZM45.7136 6.73678V2.44733H48.6485C50.2462 2.44733 51.0276 3.14198 51.0276 4.60074C51.0276 6.02477 50.2288 6.73678 48.6311 6.73678H45.7136ZM62.5356 12.9365H64.3417L59.9828 0.78017H58.3156L53.9393 12.9365H55.7454L56.5443 10.6615H61.7368L62.5356 12.9365ZM57.0826 9.09859L59.1318 3.24617H59.1666L61.1984 9.09859H57.0826ZM68.6473 12.9365H70.436V2.44733H74.1176V0.78017H64.9309V2.44733H68.6473V12.9365ZM77.8127 12.9365H79.6014V0.78017H77.8127V12.9365ZM84.1283 12.9365H88.6262C91.509 12.9365 93.0025 11.6862 93.0025 9.28962C93.0025 7.91769 92.2904 6.85835 91.1964 6.42419V6.38946C92.03 5.97267 92.5509 5.08699 92.5509 3.95819C92.5509 2.06527 91.1095 0.78017 88.9909 0.78017H84.1283V12.9365ZM85.917 5.83374V2.42996H88.6956C90.0502 2.42996 90.7622 3.00305 90.7622 4.11448C90.7622 5.26065 90.0849 5.83374 88.6956 5.83374H85.917ZM85.917 11.2867V7.3446H88.6609C90.4496 7.3446 91.2137 7.93505 91.2137 9.27225C91.2137 10.6789 90.4323 11.2867 88.6262 11.2867H85.917ZM96.8545 12.9365H103.992V11.2694H98.6432V0.78017H96.8545V12.9365ZM107.698 12.9365H115.148V11.2694H109.487V7.48353H114.662V5.88584H109.487V2.44733H115.148V0.78017H107.698V12.9365ZM126.413 12.9365H128.462L131.258 3.61086H131.293L134.071 12.9365H136.138L138.465 0.78017H136.641L134.905 10.0885H134.87L132.109 0.78017H130.424L127.68 10.0885H127.646L125.909 0.78017H124.068L126.413 12.9365ZM141.908 12.9365H143.697V0.78017H141.908V12.9365ZM151.089 12.9365H152.878V2.44733H156.56V0.78017H147.373V2.44733H151.089V12.9365ZM160.255 12.9365H162.043V7.48353H167.028V12.9365H168.816V0.78017H167.028V5.9032H162.043V0.78017H160.255V12.9365Z" fill="white"/>
<path fill-rule="evenodd" clip-rule="evenodd" d="M93.692 57.7137L93.6911 57.7123H102.971L108.673 46.2495L114.373 57.7123H125.651L108.672 24.9302L92.5542 56.0524L86.3661 47.0167C90.1869 45.1741 92.5685 41.9828 92.5685 37.3987V37.3085C92.5685 34.073 91.5801 31.7356 89.6922 29.8477C87.4896 27.6455 83.9392 26.2523 78.3663 26.2523H62.995V57.7137H73.5122V48.7246H75.7593L81.6921 57.7137H93.692ZM158.547 24.9302L141.57 57.7123H152.848L158.548 46.2495L164.25 57.7123H175.527L158.547 24.9302ZM133.62 59.0022L150.597 26.22H139.32L133.619 37.6829L127.917 26.22H116.641L133.62 59.0022ZM78.0519 41.2191C80.5683 41.2191 82.0967 40.0956 82.0967 38.163V38.0728C82.0967 36.0504 80.5233 35.0617 78.0968 35.0617H73.5123V41.2191H78.0519ZM40.5035 35.1512H31.2454V26.2523H60.2792V35.1512H51.0211V57.7137H40.5035V35.1512ZM5.61851 46.2977L0 52.9945C4.00023 56.5007 9.75321 58.2981 16.135 58.2981C24.5849 58.2981 30.0233 54.2529 30.0233 47.6456V47.5561C30.0233 41.2189 24.6298 38.8815 16.5848 37.3988C13.2587 36.7689 12.4048 36.2303 12.4048 35.376V35.2861C12.4048 34.5221 13.1242 33.9828 14.6969 33.9828C17.6181 33.9828 21.1693 34.9266 24.1351 37.0838L29.2593 29.9829C25.6186 27.1063 21.1243 25.6678 15.0568 25.6678C6.38181 25.6678 1.70781 30.2975 1.70781 36.2749V36.3651C1.70781 43.0166 7.91057 45.0397 14.9665 46.4771C18.3376 47.1516 19.3259 47.6456 19.3259 48.5448V48.6351C19.3259 49.4886 18.5173 49.9826 16.6294 49.9826C12.9441 49.9826 9.03413 48.9047 5.61851 46.2977Z" fill="white"/>
</svg>
