<svg width="365" height="37" viewBox="0 0 365 37" fill="none" xmlns="http://www.w3.org/2000/svg">
<path d="M0.905273 35.1577H3.31547V29.0503H7.34028C10.8269 29.0503 12.8861 27.1315 12.8861 23.9257C12.8861 20.7433 10.8269 18.7777 7.36368 18.7777H0.905273V35.1577ZM3.31547 26.8039V21.0241H7.27008C9.42288 21.0241 10.4759 21.9601 10.4759 23.9257C10.4759 25.8445 9.39948 26.8039 7.24668 26.8039H3.31547ZM23.679 35.5087C27.891 35.5087 30.6756 32.1157 30.6756 26.9677C30.6756 21.8197 27.891 18.4267 23.679 18.4267C19.467 18.4267 16.7058 21.8197 16.7058 26.9677C16.7058 32.1157 19.467 35.5087 23.679 35.5087ZM23.679 33.2623C20.8476 33.2623 19.116 30.8755 19.116 26.9677C19.116 23.0599 20.8476 20.6731 23.679 20.6731C26.5338 20.6731 28.2654 23.0599 28.2654 26.9677C28.2654 30.8755 26.5338 33.2623 23.679 33.2623ZM37.4565 35.1577H40.2177L43.9851 22.5919H44.0319L47.7759 35.1577H50.5605L53.6961 18.7777H51.2391L48.8991 31.3201H48.8523L45.1317 18.7777H42.8619L39.1647 31.3201H39.1179L36.7779 18.7777H34.2975L37.4565 35.1577ZM58.3358 35.1577H68.3744V32.9113H60.746V27.8101H67.7192V25.6573H60.746V21.0241H68.3744V18.7777H58.3358V35.1577ZM81.6316 28.5823C84.0418 28.0441 85.4692 26.2891 85.4692 23.7619C85.4692 20.6497 83.3866 18.7777 79.9702 18.7777H73.7926V35.1577H76.2028V28.7695H79.081L82.4506 35.1577H85.165L81.6316 28.6057V28.5823ZM76.2028 26.5465V21.0241H79.7362C81.9358 21.0241 83.059 21.9367 83.059 23.7619C83.059 25.5871 81.9124 26.5465 79.7362 26.5465H76.2028ZM90.4834 35.1577H100.522V32.9113H92.8936V27.8101H99.8668V25.6573H92.8936V21.0241H100.522V18.7777H90.4834V35.1577ZM105.94 35.1577H111.112C115.417 35.1577 118.295 32.5369 118.295 26.9443C118.295 21.7963 115.417 18.7777 111.205 18.7777H105.94V35.1577ZM108.35 32.9113V21.0241H111.135C114.037 21.0241 115.885 23.0131 115.885 26.9443C115.885 31.2031 114.037 32.9113 111.018 32.9113H108.35ZM132.055 35.1577H138.116C142 35.1577 144.012 33.4729 144.012 30.2437C144.012 28.3951 143.053 26.9677 141.579 26.3827V26.3359C142.702 25.7743 143.404 24.5809 143.404 23.0599C143.404 20.5093 141.462 18.7777 138.607 18.7777H132.055V35.1577ZM134.465 25.5871V21.0007H138.209C140.034 21.0007 140.994 21.7729 140.994 23.2705C140.994 24.8149 140.081 25.5871 138.209 25.5871H134.465ZM134.465 32.9347V27.6229H138.162C140.573 27.6229 141.602 28.4185 141.602 30.2203C141.602 32.1157 140.549 32.9347 138.116 32.9347H134.465ZM151.963 35.1577H154.373V28.3717L160.013 18.7777H157.322L153.18 26.1253H153.133L148.991 18.7777H146.3L151.963 28.3717V35.1577Z" fill="black"/>
<path fill-rule="evenodd" clip-rule="evenodd" d="M275.925 35.6008L275.923 35.5993H286.002L292.193 23.1514L298.383 35.5993H310.63L292.191 0L274.689 33.7968L267.969 23.9845C272.118 21.9836 274.704 18.5181 274.704 13.54V13.442C274.704 9.92849 273.631 7.39027 271.581 5.34009C269.189 2.94868 265.334 1.43574 259.282 1.43574H242.59V35.6008H254.011V25.8391H256.451L262.893 35.6008H275.925ZM346.353 0L327.917 35.5993H340.164L346.354 23.1514L352.545 35.5993H364.791L346.353 0ZM319.283 37L337.719 1.40071H325.473L319.282 13.8486L313.091 1.40071H300.845L319.283 37ZM258.94 17.6885C261.673 17.6885 263.333 16.4684 263.333 14.3698V14.2718C263.333 12.0756 261.624 11.0019 258.989 11.0019H254.01V17.6885H258.94ZM218.165 11.0994H208.112V1.43574H239.64V11.0994H229.587V35.6008H218.165V11.0994ZM180.282 23.2037L174.181 30.476C178.525 34.2835 184.772 36.2353 191.703 36.2353C200.879 36.2353 206.784 31.8425 206.784 24.6675V24.5703C206.784 17.6885 200.928 15.1502 192.191 13.5401C188.579 12.856 187.652 12.2712 187.652 11.3435V11.2459C187.652 10.4162 188.433 9.83056 190.141 9.83056C193.313 9.83056 197.17 10.8554 200.39 13.1981L205.955 5.48697C202.001 2.36309 197.121 0.800959 190.532 0.800959C181.111 0.800959 176.036 5.8286 176.036 12.3196V12.4176C176.036 19.6406 182.772 21.8376 190.434 23.3986C194.095 24.131 195.168 24.6675 195.168 25.644V25.742C195.168 26.6689 194.29 27.2053 192.24 27.2053C188.238 27.2053 183.992 26.0348 180.282 23.2037Z" fill="black"/>
</svg>
