<svg width="176" height="60" viewBox="0 0 176 60" fill="none" xmlns="http://www.w3.org/2000/svg">
<path d="M0.997972 12.9365H2.78669V8.40394H5.77368C8.36125 8.40394 9.88948 6.97991 9.88948 4.60074C9.88948 2.23893 8.36125 0.78017 5.79105 0.78017H0.997972V12.9365ZM2.78669 6.73678V2.44733H5.72158C7.31928 2.44733 8.10076 3.14198 8.10076 4.60074C8.10076 6.02477 7.30191 6.73678 5.70422 6.73678H2.78669ZM17.8994 13.197C21.0253 13.197 23.0919 10.6789 23.0919 6.85835C23.0919 3.03778 21.0253 0.519677 17.8994 0.519677C14.7735 0.519677 12.7242 3.03778 12.7242 6.85835C12.7242 10.6789 14.7735 13.197 17.8994 13.197ZM17.8994 11.5299C15.7981 11.5299 14.513 9.75851 14.513 6.85835C14.513 3.95819 15.7981 2.18683 17.8994 2.18683C20.0181 2.18683 21.3032 3.95819 21.3032 6.85835C21.3032 9.75851 20.0181 11.5299 17.8994 11.5299ZM28.1243 12.9365H30.1735L32.9695 3.61086H33.0042L35.7828 12.9365H37.8494L40.1764 0.78017H38.353L36.6164 10.0885H36.5816L33.8204 0.78017H32.1359L29.392 10.0885H29.3573L27.6207 0.78017H25.7798L28.1243 12.9365ZM43.6198 12.9365H51.0699V11.2694H45.4085V7.48353H50.5837V5.88584H45.4085V2.44733H51.0699V0.78017H43.6198V12.9365ZM60.9087 8.05662C62.6974 7.65719 63.7568 6.35473 63.7568 4.47917C63.7568 2.16947 62.2112 0.78017 59.6757 0.78017H55.091V12.9365H56.8797V8.19555H59.0158L61.5165 12.9365H63.531L60.9087 8.07398V8.05662ZM56.8797 6.54575V2.44733H59.502C61.1345 2.44733 61.9681 3.12461 61.9681 4.47917C61.9681 5.83374 61.1171 6.54575 59.502 6.54575H56.8797ZM67.478 12.9365H74.9281V11.2694H69.2667V7.48353H74.4419V5.88584H69.2667V2.44733H74.9281V0.78017H67.478V12.9365ZM78.9492 12.9365H82.7872C85.9825 12.9365 88.1186 10.9915 88.1186 6.84098C88.1186 3.02041 85.9825 0.78017 82.8566 0.78017H78.9492V12.9365ZM80.7379 11.2694V2.44733H82.8045C84.9579 2.44733 86.3299 3.92346 86.3299 6.84098C86.3299 10.0016 84.9579 11.2694 82.7177 11.2694H80.7379ZM98.3302 12.9365H102.828C105.711 12.9365 107.204 11.6862 107.204 9.28962C107.204 7.91769 106.492 6.85835 105.398 6.42419V6.38946C106.232 5.97267 106.753 5.08699 106.753 3.95819C106.753 2.06527 105.311 0.78017 103.193 0.78017H98.3302V12.9365ZM100.119 5.83374V2.42996H102.898C104.252 2.42996 104.964 3.00305 104.964 4.11448C104.964 5.26065 104.287 5.83374 102.898 5.83374H100.119ZM100.119 11.2867V7.3446H102.863C104.652 7.3446 105.416 7.93505 105.416 9.27225C105.416 10.6789 104.634 11.2867 102.828 11.2867H100.119ZM113.105 12.9365H114.894V7.90032L119.079 0.78017H117.082L114.008 6.23316H113.973L110.899 0.78017H108.902L113.105 7.90032V12.9365Z" fill="black"/>
<path fill-rule="evenodd" clip-rule="evenodd" d="M93.6921 57.7137L93.6911 57.7123H102.972L108.673 46.2495L114.373 57.7123H125.651L108.672 24.9302L92.5543 56.0524L86.3661 47.0167C90.1869 45.1741 92.5685 41.9828 92.5685 37.3987V37.3085C92.5685 34.073 91.5802 31.7356 89.6922 29.8477C87.4897 27.6455 83.9392 26.2523 78.3664 26.2523H62.995V57.7137H73.5122V48.7246H75.7594L81.6921 57.7137H93.6921ZM158.547 24.9302L141.57 57.7123H152.848L158.549 46.2495L164.25 57.7123H175.527L158.547 24.9302ZM133.62 59.0022L150.597 26.22H139.32L133.619 37.6829L127.918 26.22H116.641L133.62 59.0022ZM78.0518 41.2191C80.5682 41.2191 82.0966 40.0956 82.0966 38.163V38.0728C82.0966 36.0504 80.5232 35.0617 78.0967 35.0617H73.5122V41.2191H78.0518ZM40.5035 35.1512H31.2453V26.2523H60.2792V35.1512H51.0211V57.7137H40.5035V35.1512ZM5.61851 46.2977L0 52.9945C4.00023 56.5007 9.75321 58.2981 16.135 58.2981C24.5849 58.2981 30.0233 54.2529 30.0233 47.6456V47.5561C30.0233 41.2189 24.6298 38.8815 16.5848 37.3988C13.2587 36.7689 12.4048 36.2303 12.4048 35.376V35.2861C12.4048 34.5221 13.1242 33.9828 14.6969 33.9828C17.6181 33.9828 21.1693 34.9266 24.1351 37.0838L29.2593 29.9829C25.6186 27.1063 21.1243 25.6678 15.0568 25.6678C6.38181 25.6678 1.70781 30.2975 1.70781 36.2749V36.3651C1.70781 43.0166 7.91057 45.0397 14.9665 46.4771C18.3376 47.1516 19.3259 47.6456 19.3259 48.5448V48.6351C19.3259 49.4886 18.5173 49.9826 16.6294 49.9826C12.9441 49.9826 9.03413 48.9047 5.61851 46.2977Z" fill="black"/>
</svg>
